<svg width="50" height="50" viewBox="0 0 50 50" fill="none" xmlns="http://www.w3.org/2000/svg">
<path d="M35.825 8.46875C35.825 9.4716 35.4266 10.4334 34.7175 11.1425C34.0084 11.8516 33.0466 12.25 32.0437 12.25C31.0409 12.25 30.0791 11.8516 29.37 11.1425C28.6609 10.4334 28.2625 9.4716 28.2625 8.46875C28.2625 7.4659 28.6609 6.50412 29.37 5.795C30.0791 5.08588 31.0409 4.6875 32.0437 4.6875C33.0466 4.6875 34.0084 5.08588 34.7175 5.795C35.4266 6.50412 35.825 7.4659 35.825 8.46875ZM11.5 44.8167C12.5156 43.9 22.2062 30.5833 22.0864 30.2698C22.0031 30.0521 17.1781 27.6865 17.1364 27.7521L8.76665 40.8156C5.93749 45.2302 10.1958 45.9948 11.5 44.8177V44.8167ZM23.8781 39.6865L32.9271 28.4687C33.6937 27.5167 32.3479 26.2479 31.3739 25.7896C28.8094 24.5812 21.5458 21.8562 20.8927 21.8562C19.8 21.8562 18.6625 23.0417 18.6625 24.1792C18.6625 25.6167 19.3698 26.1917 22.9156 27.6396C24.7052 28.3698 26.2114 29.0458 26.1698 29.1125L20.4167 38.4177C19.4625 39.9604 22.6854 41.1656 23.8781 39.6865ZM15.2833 22.6427C15.8333 22.1406 17.4917 20.5635 18.9667 19.1365C20.4771 17.676 21.7927 16.5969 21.9771 16.6677C22.1573 16.7365 24.7219 18.1708 27.6771 19.8552C33.201 23.0042 34.4917 23.4927 35.6521 22.8708C35.9531 22.7104 37.5458 20.8917 39.1917 18.8292C41.7177 15.6656 42.1844 14.9458 42.1844 14.2146C42.1844 13.0833 41.4531 12.3469 40.3302 12.3469C39.6198 12.3469 39.0177 12.7302 36.7635 14.6177C35.2719 15.8667 33.9125 16.9479 33.7427 17.0208C33.4167 17.1594 33.151 17.0177 27.5448 13.7104C23.4687 11.3062 22.3844 10.9323 20.6698 11.3438C19.2208 11.6917 18.2969 12.601 14.4344 17.4771C13.1729 19.175 10.9031 20.9771 12.0927 23.1615C13.1219 24.0573 13.8604 23.9375 15.2833 22.6427Z" stroke="#E5E5E5" stroke-linecap="round" stroke-linejoin="round"/>
</svg>
