<svg width="50" height="50" viewBox="0 0 50 50" fill="none" xmlns="http://www.w3.org/2000/svg">
<path d="M4.20417 42.302C6.55625 45.6666 16.7896 48.3062 21.625 42.0103C26.8542 44.5103 35.4771 43.7353 42.5 39.8187C43.475 39.277 44.3979 38.5895 44.9646 37.6228C46.2417 35.4457 46.2708 32.4249 43.9417 27.9687C40.0562 18.2728 33.0708 9.76032 30.25 6.33741C29.6708 5.81032 25.9771 5.06032 23.7229 4.33741C22.7271 4.03116 20.875 3.82699 18.6604 6.74782C17.6083 8.13116 12.8354 11.5332 18.8896 13.8187C19.8292 14.0582 20.5188 14.4978 24.8 13.7166C25.3563 13.6207 26.7479 13.7166 27.7292 15.4374L29.7792 18.3687C29.9709 18.6402 30.0919 18.9553 30.1313 19.2853C30.4896 22.4082 30.4771 26.3166 32.2188 28.2978C29.5313 26.352 22.5021 24.0437 17.2063 30.6145M4.17084 26.9582C6.55487 24.8333 9.59425 23.5882 12.7839 23.4298C15.9735 23.2714 19.1213 24.2092 21.7042 26.0874" stroke="#E5E5E5" stroke-width="1.5" stroke-linecap="round" stroke-linejoin="round"/>
</svg>
