<svg width="48" height="48" viewBox="0 0 48 48" fill="none" xmlns="http://www.w3.org/2000/svg">
<path d="M36.304 22.71C36.894 23.2999 37.362 24.0002 37.6812 24.7709C38.0005 25.5416 38.1649 26.3677 38.1649 27.202C38.1649 28.0363 38.0005 28.8624 37.6812 29.6331C37.362 30.4038 36.894 31.1041 36.304 31.694L36.284 31.714L24 44L11.712 31.712L11.694 31.694C11.0902 31.0908 10.6143 30.3719 10.2948 29.5805C9.97522 28.789 9.81862 27.9413 9.83433 27.0879C9.85003 26.2346 10.0377 25.3931 10.3861 24.614C10.7346 23.8348 11.2366 23.134 11.8622 22.5534C12.4878 21.9727 13.224 21.5243 14.027 21.2348C14.8299 20.9453 15.6829 20.8208 16.5351 20.8687C17.3873 20.9165 18.221 21.1358 18.9865 21.5133C19.7519 21.8909 20.4333 22.419 20.99 23.066L24 26.078L26.9 23.178C27.4622 22.4916 28.1619 21.9307 28.9542 21.5312C29.7464 21.1318 30.6135 20.9027 31.4996 20.8588C32.3858 20.8149 33.2713 20.9571 34.0991 21.2763C34.9269 21.5955 35.6787 22.0846 36.306 22.712L36.304 22.71ZM17.998 10C17.998 10.7879 18.1532 11.5681 18.4547 12.2961C18.7562 13.0241 19.1982 13.6855 19.7553 14.2426C20.3125 14.7998 20.9739 15.2417 21.7019 15.5433C22.4298 15.8448 23.21 16 23.998 16C24.7859 16 25.5661 15.8448 26.2941 15.5433C27.022 15.2417 27.6835 14.7998 28.2406 14.2426C28.7978 13.6855 29.2397 13.0241 29.5413 12.2961C29.8428 11.5681 29.998 10.7879 29.998 10C29.998 9.21207 29.8428 8.43185 29.5413 7.7039C29.2397 6.97595 28.7978 6.31451 28.2406 5.75736C27.6835 5.20021 27.022 4.75825 26.2941 4.45672C25.5661 4.15519 24.7859 4 23.998 4C23.21 4 22.4298 4.15519 21.7019 4.45672C20.9739 4.75825 20.3125 5.20021 19.7553 5.75736C19.1982 6.31451 18.7562 6.97595 18.4547 7.7039C18.1532 8.43185 17.998 9.21207 17.998 10Z" stroke="#E5E5E5"/>
</svg>
