<svg width="50" height="50" viewBox="0 0 50 50" fill="none" xmlns="http://www.w3.org/2000/svg">
<path d="M11.9791 3.12488L11.4583 14.5832M17.1875 3.12488L17.7083 14.5832M33.551 3.26967C37.551 6.2405 43.1416 14.4311 43.7041 27.0801C43.7625 28.3895 43.125 29.6301 41.9354 30.1822C41.0864 30.5759 39.9385 31.0238 38.4927 31.4051C38.2371 31.4693 38.0141 31.6253 37.8662 31.8433C37.7183 32.0614 37.6558 32.3262 37.6906 32.5874L38.9677 41.5228C39.3218 44.0051 38.35 46.229 35.9312 46.8947C33.6708 47.5176 31.25 46.0155 31.25 43.6697V4.69363C31.25 3.35613 32.477 2.4728 33.551 3.26967ZM22.8593 5.58113C23.3385 8.41238 24.0093 13.3593 23.9552 18.6415C23.9281 21.3676 22.1073 23.8103 19.2448 24.452C18.6531 24.5843 18.0229 24.704 17.3645 24.7968L19.2854 41.4426C19.577 43.9759 18.0083 46.4603 15.4812 46.802C15.1837 46.8448 14.8838 46.8691 14.5833 46.8749C14.3302 46.8749 14.0229 46.8478 13.6843 46.802C11.1583 46.4603 9.58954 43.9759 9.88225 41.4426L11.802 24.7968C11.1713 24.7072 10.5444 24.5925 9.92288 24.453C7.05934 23.8103 5.2385 21.3665 5.21038 18.6405C5.15725 13.3593 5.826 8.41342 6.30517 5.58217C6.54892 4.13946 7.81142 3.12488 9.27392 3.12488H19.8906C21.3541 3.12488 22.6156 4.13842 22.8593 5.58113Z" stroke="#E5E5E5" stroke-width="1.5" stroke-linecap="round" stroke-linejoin="round"/>
</svg>
