<svg width="50" height="50" viewBox="0 0 50 50" fill="none" xmlns="http://www.w3.org/2000/svg">
<path d="M21.0938 37.5C20.8865 37.5 20.6878 37.5823 20.5413 37.7288C20.3948 37.8753 20.3125 38.0741 20.3125 38.2812C20.3125 38.4884 20.3948 38.6872 20.5413 38.8337C20.6878 38.9802 20.8865 39.0625 21.0938 39.0625H28.9062C29.1135 39.0625 29.3122 38.9802 29.4587 38.8337C29.6052 38.6872 29.6875 38.4884 29.6875 38.2812C29.6875 38.0741 29.6052 37.8753 29.4587 37.7288C29.3122 37.5823 29.1135 37.5 28.9062 37.5H21.0938ZM16.0156 3.125C14.6688 3.125 13.3772 3.66001 12.4248 4.61235C11.4725 5.56468 10.9375 6.85632 10.9375 8.20312V41.7969C10.9375 43.1437 11.4725 44.4353 12.4248 45.3877C13.3772 46.34 14.6688 46.875 16.0156 46.875H33.9844C35.3312 46.875 36.6228 46.34 37.5752 45.3877C38.5275 44.4353 39.0625 43.1437 39.0625 41.7969V8.20312C39.0625 6.85632 38.5275 5.56468 37.5752 4.61235C36.6228 3.66001 35.3312 3.125 33.9844 3.125H16.0156ZM12.5 8.20312C12.5 7.27072 12.8704 6.37651 13.5297 5.7172C14.189 5.0579 15.0832 4.6875 16.0156 4.6875H33.9844C34.9168 4.6875 35.811 5.0579 36.4703 5.7172C37.1296 6.37651 37.5 7.27072 37.5 8.20312V41.7969C37.5 42.7293 37.1296 43.6235 36.4703 44.2828C35.811 44.9421 34.9168 45.3125 33.9844 45.3125H16.0156C15.0832 45.3125 14.189 44.9421 13.5297 44.2828C12.8704 43.6235 12.5 42.7293 12.5 41.7969V8.20312Z" fill="#E5E5E5"/>
</svg>
